<svg xmlns="http://www.w3.org/2000/svg" version="1.1" xmlns:xlink="http://www.w3.org/1999/xlink" xmlns:svgjs="http://svgjs.dev/svgjs" width="2000" height="2000" viewBox="0 0 2000 2000"><g transform="matrix(1,0,0,1,-0.28443113772425477,-0.28443113772459583)"><svg viewBox="0 0 334 334" data-background-color="#ffffff" preserveAspectRatio="xMidYMid meet" height="2000" width="2000" xmlns="http://www.w3.org/2000/svg" xmlns:xlink="http://www.w3.org/1999/xlink"><g id="tight-bounds" transform="matrix(1,0,0,1,0.04749999999998522,0.04750000000001364)"><svg viewBox="0 0 333.90454557049503 333.90454557049503" height="333.90454557049503" width="333.90454557049503"><g><svg></svg></g><g><svg viewBox="0 0 333.90454557049503 333.90454557049503" height="333.90454557049503" width="333.90454557049503"><g><path d="M0 166.952c0-92.205 74.747-166.952 166.952-166.952 92.205 0 166.952 74.747 166.953 166.952 0 92.205-74.747 166.952-166.953 166.953-92.205 0-166.952-74.747-166.952-166.953zM166.952 316.63c82.665 0 149.677-67.013 149.678-149.678 0-82.665-67.013-149.677-149.678-149.677-82.665 0-149.677 67.013-149.677 149.677 0 82.665 67.013 149.677 149.677 149.678z" data-fill-palette-color="tertiary" fill="#6b7280" stroke="transparent"></path><ellipse rx="160.27418187383762" ry="160.27418187383762" cx="166.95227278524752" cy="166.95227278524752" fill="#6b7280" stroke="transparent" stroke-width="0" fill-opacity="1" data-fill-palette-color="tertiary"></ellipse></g><g transform="matrix(1,0,0,1,105.56758525983682,71.17305217166896)"><svg viewBox="0 0 122.76937505082141 191.55844122715712" height="191.55844122715712" width="122.76937505082141"><g><svg viewBox="0 0 122.76937505082141 191.55844122715712" height="191.55844122715712" width="122.76937505082141"><g><svg viewBox="0 0 122.76937505082141 191.55844122715712" height="191.55844122715712" width="122.76937505082141"><g><svg viewBox="0 0 122.76937505082141 191.55844122715712" height="191.55844122715712" width="122.76937505082141"><g id="textblocktransform"><svg viewBox="0 0 122.76937505082141 191.55844122715712" height="191.55844122715712" width="122.76937505082141" id="textblock"><g><svg viewBox="0 0 122.76937505082141 191.55844122715712" height="191.55844122715712" width="122.76937505082141"><g transform="matrix(1,0,0,1,0,0)"><svg width="122.76937505082141" viewBox="4.050000190734863 -39.70000076293945 25.700000762939453 40.10000228881836" height="191.55844122715712" data-palette-color="#ffffff"><path d="M21.75-14.7L14.85-14.7Q14-14.7 13.53-15.38 13.05-16.05 13.05-17.2L13.05-17.2Q13.05-19.75 15.15-19.75L15.15-19.75 20.45-19.75Q22.3-19.75 23.08-20.8 23.85-21.85 23.85-23.1L23.85-23.1 23.85-31.3Q23.85-32.55 23.08-33.6 22.3-34.65 20.45-34.65L20.45-34.65 9.95-34.65 9.95-2Q9.95 0.4 6.95 0.4L6.95 0.4Q4.05 0.4 4.05-2L4.05-2 4.05-36.7Q4.05-38.5 4.95-39.1 5.85-39.7 7.15-39.7L7.15-39.7 21.75-39.7Q23-39.7 24.4-39.15 25.8-38.6 27.1-37.75L27.1-37.75 27.05-37.75Q28.35-36.8 29.05-35.27 29.75-33.75 29.75-31.75L29.75-31.75 29.75-22.7Q29.75-18.65 27.05-16.65L27.05-16.65Q25.75-15.7 24.4-15.2 23.05-14.7 21.75-14.7L21.75-14.7Z" opacity="1" transform="matrix(1,0,0,1,0,0)" fill="#ffffff" class="wordmark-text-0" data-fill-palette-color="quaternary" id="text-0"></path></svg></g></svg></g></svg></g></svg></g><g></g></svg></g></svg></g></svg></g></svg></g><defs></defs></svg><rect width="333.90454557049503" height="333.90454557049503" fill="none" stroke="none" visibility="hidden"></rect></g></svg></g></svg>